Coordinates
version=1
nRows=16
nColumns=30
inDegrees=yes

Units are S.I. units (second, meters, Newtons, ...)
Angles are in degrees.

endheader
time	floatyaw	floatroll	floatpitch	floatx	floaty	floatz	pro_sup_l	deviation_l	flexion_l	cmc_flexion_l	cmc_abduction_l	mp_flexion_l	ip_flexion_l	2mcp_flexion_l	2mcp_abduction_l	2pm_flexion_l	2md_flexion_l	3mcp_flexion_l	3mcp_abduction_l	3pm_flexion_l	3md_flexion_l	4mcp_flexion_l	4mcp_abduction_l	4pm_flexion_l	4md_flexion_l	5mcp_flexion_l	5mcp_abduction_l	5pm_flexion_l	5md_flexion_l
19.500000	-3.995636	-4.876138	96.430707	0.051510	-0.133871	0.039674	5.573161	6.632908	-0.705144	-0.494840	21.383943	-28.348676	-41.019613	54.247797	5.313651	72.553398	44.943914	61.366081	6.387748	83.897226	51.249385	63.732288	-5.705680	92.166408	52.587829	48.822653	-5.562782	93.283494	50.829824
19.533333	-3.995636	-4.876138	96.430707	0.051510	-0.133871	0.039674	5.573161	6.632908	-0.705144	-0.494840	21.383943	-28.348676	-41.019613	54.247797	5.313651	72.553398	44.943914	61.366081	6.387748	83.897226	51.249385	63.732288	-5.705680	92.166408	52.587829	48.822653	-5.562782	93.283494	50.829824
19.566667	-3.995636	-4.876138	96.430707	0.051510	-0.133871	0.039674	5.573161	6.632908	-0.705144	-0.494840	21.383943	-28.348676	-41.019613	54.247797	5.313651	72.553398	44.943914	61.366081	6.387748	83.897226	51.249385	63.732288	-5.705680	92.166408	52.587829	48.822653	-5.562782	93.283494	50.829824
19.600000	-3.995636	-4.876138	96.430707	0.051510	-0.133871	0.039674	5.573161	6.632908	-0.705144	-0.494840	21.383943	-28.348676	-41.019613	54.247797	5.313651	72.553398	44.943914	61.366081	6.387748	83.897226	51.249385	63.732288	-5.705680	92.166408	52.587829	48.822653	-5.562782	93.283494	50.829824
19.633333	-3.995636	-4.876138	96.430707	0.051510	-0.133871	0.039674	5.573161	6.632908	-0.705144	-0.494840	21.383943	-28.348676	-41.019613	54.247797	5.313651	72.553398	44.943914	61.366081	6.387748	83.897226	51.249385	63.732288	-5.705680	92.166408	52.587829	48.822653	-5.562782	93.283494	50.829824
19.666667	-3.995636	-4.876138	96.430707	0.051510	-0.133871	0.039674	5.573161	6.632908	-0.705144	-0.494840	21.383943	-28.348676	-41.019613	54.247797	5.313651	72.553398	44.943914	61.366081	6.387748	83.897226	51.249385	63.732288	-5.705680	92.166408	52.587829	48.822653	-5.562782	93.283494	50.829824
19.700000	-3.995636	-4.876138	96.430707	0.051510	-0.133871	0.039674	5.573161	6.632908	-0.705144	-0.494840	21.383943	-28.348676	-41.019613	54.247797	5.313651	72.553398	44.943914	61.366081	6.387748	83.897226	51.249385	63.732288	-5.705680	92.166408	52.587829	48.822653	-5.562782	93.283494	50.829824
19.733333	-3.995636	-4.876138	96.430707	0.051510	-0.133871	0.039674	5.573161	6.632908	-0.705144	-0.494840	21.383943	-28.348676	-41.019613	54.247797	5.313651	72.553398	44.943914	61.366081	6.387748	83.897226	51.249385	63.732288	-5.705680	92.166408	52.587829	48.822653	-5.562782	93.283494	50.829824
19.766667	-3.995636	-4.876138	96.430707	0.051510	-0.133871	0.039674	5.573161	6.632908	-0.705144	-0.494840	21.383943	-28.348676	-41.019613	54.247797	5.313651	72.553398	44.943914	61.366081	6.387748	83.897226	51.249385	63.732288	-5.705680	92.166408	52.587829	48.822653	-5.562782	93.283494	50.829824
19.800000	-3.995636	-4.876138	96.430707	0.051510	-0.133871	0.039674	5.573161	6.632908	-0.705144	-0.494840	21.383943	-28.348676	-41.019613	54.247797	5.313651	72.553398	44.943914	61.366081	6.387748	83.897226	51.249385	63.732288	-5.705680	92.166408	52.587829	48.822653	-5.562782	93.283494	50.829824
19.833333	-3.995636	-4.876138	96.430707	0.051510	-0.133871	0.039674	5.573161	6.632908	-0.705144	-0.494840	21.383943	-28.348676	-41.019613	54.247797	5.313651	72.553398	44.943914	61.366081	6.387748	83.897226	51.249385	63.732288	-5.705680	92.166408	52.587829	48.822653	-5.562782	93.283494	50.829824
19.866667	-3.995636	-4.876138	96.430707	0.051510	-0.133871	0.039674	5.573161	6.632908	-0.705144	-0.494840	21.383943	-28.348676	-41.019613	54.247797	5.313651	72.553398	44.943914	61.366081	6.387748	83.897226	51.249385	63.732288	-5.705680	92.166408	52.587829	48.822653	-5.562782	93.283494	50.829824
19.900000	-3.995636	-4.876138	96.430707	0.051510	-0.133871	0.039674	5.573161	6.632908	-0.705144	-0.494840	21.383943	-28.348676	-41.019613	54.247797	5.313651	72.553398	44.943914	61.366081	6.387748	83.897226	51.249385	63.732288	-5.705680	92.166408	52.587829	48.822653	-5.562782	93.283494	50.829824
19.933333	-3.995636	-4.876138	96.430707	0.051510	-0.133871	0.039674	5.573161	6.632908	-0.705144	-0.494840	21.383943	-28.348676	-41.019613	54.247797	5.313651	72.553398	44.943914	61.366081	6.387748	83.897226	51.249385	63.732288	-5.705680	92.166408	52.587829	48.822653	-5.562782	93.283494	50.829824
19.966667	-3.995636	-4.876138	96.430707	0.051510	-0.133871	0.039674	5.573161	6.632908	-0.705144	-0.494840	21.383943	-28.348676	-41.019613	54.247797	5.313651	72.553398	44.943914	61.366081	6.387748	83.897226	51.249385	63.732288	-5.705680	92.166408	52.587829	48.822653	-5.562782	93.283494	50.829824
20.000000	-1.899941	-3.552005	97.501371	0.055024	-0.111436	0.043099	78.886568	19.205793	-4.179367	-2.111935	36.964844	-28.627439	-46.267518	57.410597	7.561091	62.074687	46.263790	61.270492	6.414367	71.860184	52.329651	61.652346	-5.449932	88.080255	59.517155	47.869154	-9.050797	89.575695	50.970770
